<svg xmlns="http://www.w3.org/2000/svg" width="246" height="246" viewBox="0 0 246 246">
  <g id="Group_345" data-name="Group 345" transform="translate(-1526 -997)">
    <rect id="Rectangle_75" data-name="Rectangle 75" width="246" height="246" transform="translate(1526 997)" fill="none"/>
    <g id="Group_342" data-name="Group 342" transform="translate(619.214 -6858.525)">
      <g id="blob-shape_2_" data-name="blob-shape (2)" transform="translate(926.383 7882.088)">
        <path id="Path_3125" data-name="Path 3125" d="M-41.619-166.432c20.432,11.4,40.486,28.946,48.574,52.027,8.135,23.034,4.3,51.6-10.169,71.56C-17.639-22.839-42.754-11.488-68.105-3.353s-50.939,13.007-75.249,7.236c-24.358-5.723-47.392-22.182-52.168-43.04s8.655-46.162,14.567-71.56c5.959-25.4,4.446-50.892,16.081-63.8,11.635-12.959,36.466-13.29,59.263-10.878S-62.051-177.784-41.619-166.432Z" transform="translate(196.531 186.564)" fill="#d94848"/>
      </g>
      <g id="Layer_2" data-name="Layer 2" transform="translate(961.397 7931.946)">
        <g id="Layer_1" data-name="Layer 1" transform="translate(0 0)">
          <path id="Path_3126" data-name="Path 3126" d="M153.766,33.857A30.641,30.641,0,0,0,126.64,21.225c5.4,9.453,15.271,16.228,27.3,14.1a50.393,50.393,0,0,0-1.3-10.468,30.936,30.936,0,0,0-2.076-6.231A22.453,22.453,0,0,0,135.842,6.566a38.338,38.338,0,0,0,4.741,16.729,26.369,26.369,0,0,0,12.756,11.454,2.336,2.336,0,0,0,1.194.228c.84-.133,1.279-1.048,1.572-1.848a46.279,46.279,0,0,0,3.238-16.459c-.085-5.626-1.747-11.347-5.359-15.619a26.738,26.738,0,0,0-.713,32.882,2.266,2.266,0,0,0,3.645.664c9.072-5.477,13.69-16.674,13.54-27.334-6.463,3.784-13.436,8.2-15.743,15.388-1.324,4.113-.9,8.565-.459,12.866,7.81-.059,11.249-.615,15.961-3.615a31.074,31.074,0,0,0,10.9-12.509,28.187,28.187,0,0,0-23.937,10.65c-2.476,3.182-4.3,7.387-3.046,11.23" transform="translate(-85.74 -1.05)" fill="none" stroke="#fff" stroke-linecap="round" stroke-linejoin="round" stroke-width="1.5"/>
          <path id="Path_3127" data-name="Path 3127" d="M219.43,127.373l8.578,2.414a4.951,4.951,0,0,1,2.929,1.627c.8,1.188.231,2.733,0,4.146-1.256,7.406-2.34,12.216-2.857,18.564a2.311,2.311,0,0,0,1.276,2.216.108.108,0,0,0,.055,0,2.285,2.285,0,0,0,1.734-1.165c5.62-13.016,8.6-24.8,13.41-37.747.179-.478.748,0,1.253-.075.29-.039.459-.325.579-.605.309-.651.605-1.481.172-2.07a1.812,1.812,0,0,0-.856-.553c-1.65-.612-3.579-.631-4.92-1.77-1.477-1.259-1.7-3.446-1.549-5.379.146-1.8.56-3.68,2.883-4.526a3.557,3.557,0,0,1,1.37-.2c1.39.065,2.418-.761,3.8-.651a18.208,18.208,0,0,0,4.351.325c1.445-.231,2.912-1.422,2.7-2.867.8.244.651.927.381,1.712a4.953,4.953,0,0,1-1.855,2.388,1.928,1.928,0,0,1-1.773.364c1.272.651,2.245.033,3.6-.394a13.384,13.384,0,0,1,9.554.625,8.672,8.672,0,0,0-6.781.55.937.937,0,0,0,.761.67,2.886,2.886,0,0,0,1.067-.062,16.685,16.685,0,0,1,6.287-.085,8.676,8.676,0,0,1,5.281,3.212,11.625,11.625,0,0,0-10.738-.277c.742-.361,1.588.133,2.372.394a10.289,10.289,0,0,0,4.344,0,19.82,19.82,0,0,1,5.857.293,16.489,16.489,0,0,0,3.98.674c1.939.055,3.723-.436,6.72-1.952a16.075,16.075,0,0,1-11.041,3.579c-3.4-.231-6.736-1.542-10.133-1.22-2.336.221-4.712,1.211-6.954.517-1.243-.384-2.424-1.272-3.69-1.139a.774.774,0,0,0-.719.713c-.033.582.482.761.927.869a20.5,20.5,0,0,0,4.406.566,13.838,13.838,0,0,1,3.6.28,3.263,3.263,0,0,1,2.457,2.395,6.08,6.08,0,0,0-6.28-.459c-.748.391-1.409.944-2.177,1.3-2.32,1.067-5.021.111-7.387-.843a8.753,8.753,0,0,1-3.843-2.4,4.344,4.344,0,0,1,2.209-6.833c1.7-.5,3.514.075,5.206.651a6.29,6.29,0,0,0,3.436.234,4.755,4.755,0,0,1-2.571.914,7.746,7.746,0,0,0-2.685.625,2.177,2.177,0,0,0-1.246,2.255,2.724,2.724,0,0,1,2.929-1.839c-.843.651-1.894,1-1.858,2.076a7.357,7.357,0,0,1,.15,1.373,2.018,2.018,0,0,1-.742,1.123,6.785,6.785,0,0,1-7.484.866,2.755,2.755,0,0,1-1.513-1.666,4.481,4.481,0,0,0-.927,3.752,17.476,17.476,0,0,0,6.085,1.627,1.851,1.851,0,0,0,.944-.065.683.683,0,0,0,.433-.761l-2.929-.768a6.644,6.644,0,0,0-2.694-.325,2.161,2.161,0,0,0-1.874,1.718.325.325,0,0,0,.085.3c.088.065.251-.039.192-.13-.046.156-.377.133-.423.29,0,0-6.863,29.446-7.387,32.368s1.054.485,1.054.485l5.424-14.816s.84-2.831,4.3-1.8,14.357,4.09,14.357,4.09" transform="translate(-148.336 -67.167)" fill="none" stroke="#fff" stroke-linecap="round" stroke-linejoin="round" stroke-width="1.5"/>
          <path id="Path_3128" data-name="Path 3128" d="M64.911,128.043l-8.581,2.414a5,5,0,0,0-2.929,1.627c-.8,1.188-.234,2.737,0,4.149,1.256,7.4,2.343,12.212,2.86,18.548A2.311,2.311,0,0,1,54.987,157a.119.119,0,0,1-.059,0,2.29,2.29,0,0,1-1.734-1.165c-5.616-13.016-8.6-24.8-13.407-37.747-.179-.478-.748,0-1.256-.075-.286-.039-.456-.325-.579-.6-.306-.651-.6-1.484-.172-2.073a1.822,1.822,0,0,1,.859-.553c1.65-.612,3.579-.628,4.92-1.77,1.477-1.256,1.7-3.446,1.546-5.376-.143-1.806-.556-3.684-2.88-4.53a3.58,3.58,0,0,0-1.37-.2c-1.389.065-2.418-.761-3.8-.651a18.2,18.2,0,0,1-4.351.325c-1.445-.231-2.929-1.422-2.7-2.867-.8.244-.651.931-.381,1.715a4.966,4.966,0,0,0,1.855,2.388,1.936,1.936,0,0,0,1.773.364c-1.272.651-2.249.029-3.6-.4a13.394,13.394,0,0,0-9.557.625,8.679,8.679,0,0,1,6.8.6.937.937,0,0,1-.761.67,2.906,2.906,0,0,1-1.071-.059,16.6,16.6,0,0,0-6.284-.088,8.685,8.685,0,0,0-5.281,3.212,11.616,11.616,0,0,1,10.738-.273c-.745-.361-1.588.133-2.372.394a10.288,10.288,0,0,1-4.344,0,19.7,19.7,0,0,0-5.857.3,16.354,16.354,0,0,1-3.983.67c-1.943.052-3.723-.433-6.716-1.952a16.07,16.07,0,0,0,11.041,3.579c3.4-.231,6.736-1.542,10.133-1.217,2.333.221,4.709,1.207,6.951.514,1.243-.381,2.424-1.272,3.693-1.139a.781.781,0,0,1,.719.716c.033.579-.482.761-.927.869a20.711,20.711,0,0,1-4.406.563,14.017,14.017,0,0,0-3.6.28,3.254,3.254,0,0,0-2.454,2.395,6.087,6.087,0,0,1,6.28-.459c.748.39,1.409.944,2.177,1.3,2.32,1.067,5.021.114,7.387-.843a8.724,8.724,0,0,0,3.84-2.4,4.344,4.344,0,0,0-2.21-6.833c-1.7-.5-3.511.072-5.206.651a6.218,6.218,0,0,1-3.433.234,4.776,4.776,0,0,0,2.571.918,7.73,7.73,0,0,1,2.685.625,2.168,2.168,0,0,1,1.243,2.252,2.717,2.717,0,0,0-2.929-1.835c.843.651,1.9,1,1.858,2.073a9.031,9.031,0,0,0-.146,1.373,1.978,1.978,0,0,0,.742,1.123,6.788,6.788,0,0,0,7.484.869,2.757,2.757,0,0,0,1.51-1.666,4.465,4.465,0,0,1,.931,3.749A17.493,17.493,0,0,1,40.8,117.2a1.851,1.851,0,0,1-.944-.065.683.683,0,0,1-.433-.761l2.929-.768a6.692,6.692,0,0,1,2.691-.325A2.172,2.172,0,0,1,46.917,117a.325.325,0,0,1-.085.3c-.088.065-.251-.036-.192-.13.046.159.377.133.423.29,0,0,6.86,29.446,7.387,32.368s-1.054.485-1.054.485l-5.408-14.78s-.84-2.831-4.3-1.806-14.357,4.094-14.357,4.094" transform="translate(-0.95 -67.612)" fill="none" stroke="#fff" stroke-linecap="round" stroke-linejoin="round" stroke-width="1.5"/>
        </g>
      </g>
    </g>
  </g>
</svg>
