<svg xmlns="http://www.w3.org/2000/svg" width="246" height="246" viewBox="0 0 246 246">
  <g id="Group_355" data-name="Group 355" transform="translate(-1251 -997)">
    <rect id="Rectangle_74" data-name="Rectangle 74" width="246" height="246" transform="translate(1251 997)" fill="none"/>
    <g id="Group_341" data-name="Group 341" transform="translate(687.539 -6847)">
      <g id="blob-shape_1_" data-name="blob-shape (1)" transform="translate(587.606 7864.031)">
        <path id="Path_3123" data-name="Path 3123" d="M22.73-181.407c19.742,30.759,23.041,68.565,11.521,96.584S-3.611-38.573-29.392-30.463s-51.06,6.04-74.829-3.579c-23.824-9.675-46.251-27.012-51.619-48.711s6.264-47.872,23.545-78.072c17.281-30.256,40.155-64.538,69.683-69.851C-33.14-235.934,3.044-212.222,22.73-181.407Z" transform="translate(157.161 231.41)" fill="#0b304b"/>
      </g>
      <g id="Layer_2" data-name="Layer 2" transform="translate(625.539 7913.76)">
        <g id="Layer_1" data-name="Layer 1" transform="translate(0 0)">
          <path id="Path_3124" data-name="Path 3124" d="M114.312,70.7a15.634,15.634,0,0,0-9.293,2.076c-2.389,1.376-4.44,3.352-6.754,4.853A13.633,13.633,0,0,1,90.548,79.4l-.45-17.36-19.436-.563L70.537,75.33,67.5,77.569l-.1-20.512,26.728-.238L94.3,53.83l-53.294.838V53.092l49.541-.525.225-6.491-5.566.113.163-.863,5.891-.113,3.552-5-53.919-.225.175-1.4L93.6,38.446l3.752-5.753c-24.352,1.488-63.787.363-63.787.363l63.162-1.6L66.934,23.2l-6.479.113A262.962,262.962,0,0,0,25,33.956a44.063,44.063,0,0,1,7.617,4.515c.525-.7.9-.888,1.438-1.588.225,7.755.25,15.447.075,23.151l23.514-.275L57.429,78.87H45.184l.188-17.9-11.131.063-.125,8.593q-.188,4.34-.488,8.68c-.55.775-1.626.6-2.5.413a23.764,23.764,0,0,0-7.98-.425c-1.814.213-3.6.638-5.416.738a8.755,8.755,0,0,1-5.266-1.051L8,76.294" transform="translate(1.669 6.445)" fill="none" stroke="#fff" stroke-linecap="round" stroke-linejoin="round" stroke-width="2.5"/>
          <rect id="Rectangle_48" data-name="Rectangle 48" width="127.306" height="128.463" transform="translate(0)" fill="none"/>
        </g>
      </g>
    </g>
  </g>
</svg>
