<svg xmlns="http://www.w3.org/2000/svg" width="246" height="246" viewBox="0 0 246 246">
  <g id="Group_343" data-name="Group 343" transform="translate(-977 -997)">
    <rect id="Rectangle_73" data-name="Rectangle 73" width="246" height="246" transform="translate(977 997)" fill="none"/>
    <g id="Group_340" data-name="Group 340" transform="translate(815.137 -6860)">
      <g id="blob-shape_4_" data-name="blob-shape (4)" transform="translate(187.312 7877.031)">
        <path id="Path_13" data-name="Path 13" d="M-21.492-212.507C-6.77-194.543-5.021-167.92,1.831-140.7c6.851,27.178,18.853,55,11.224,76.025C5.378-43.6-21.978-29.343-47.245-28.927c-25.267.37-48.492-13.1-67.928-24.863-19.436-11.807-35.082-21.854-46.84-36.392s-19.582-33.614-15.6-49.865c4.033-16.251,19.922-29.679,36.2-47.412,16.229-17.687,32.9-39.679,55.149-46.023C-64.057-239.778-36.264-230.472-21.492-212.507Z" transform="translate(178.661 235.449)" fill="#d94848"/>
      </g>
      <g id="Layer_2" data-name="Layer 2" transform="translate(215.585 7916.208)">
        <g id="Layer_1" data-name="Layer 1" transform="translate(0 0)">
          <path id="Path_3122" data-name="Path 3122" d="M113.613,46.51a52.325,52.325,0,0,0-8.687,5.067.956.956,0,0,0-.333.347,4.561,4.561,0,0,0-.261,2.722q.97,9.165,2.2,18.286a13.771,13.771,0,0,0,.492,2.418,13.972,13.972,0,0,0,2.519,3.967c.434.565,1.882,2.114,0,2.968a2.345,2.345,0,0,1-3.142-1.173,2.9,2.9,0,0,1-.319-.97,203.553,203.553,0,0,1-3.46-24.165,3.518,3.518,0,0,0-1.332-3.1,1.564,1.564,0,0,0-1.361-.1c-1.708.84-.492.362-2.1,1.448A3.229,3.229,0,0,0,96.6,56.066a2.258,2.258,0,0,0,0,.825c.767,8.253,2.027,16.766,2.809,24.975.13,1.347-1.245,2.273-1.882,2.9C91.128,91.09,81.6,96.345,72.682,97.214c-13.6,1.216-15.42.521-26.293-2.288a11.583,11.583,0,0,1-7.746-8.383L34.155,62.234c-.13-.767.145-1.81.883-1.448a72.9,72.9,0,0,1,10.7,3.822c8.412,1.839,15.275,5.632,23.368,6.11,0-.174-.29,0-.174.145s.3,0,.449,0L84.366,61.38l10.627-6.718c4.474-2.9,16.925-9.99,21.414-12.828a1.81,1.81,0,0,0,.8-.782,1.289,1.289,0,0,0-.709-1.448,10.758,10.758,0,0,0-1.824-.405c-13.986-4.344-34.922-6.371-47.866-10a10.728,10.728,0,0,0-8.369.811C44.608,37.823,26.467,44.657,15,53.417c2.23.8,12.553,3.837,14.782,4.633a4.691,4.691,0,0,0,2.447.405,1.651,1.651,0,0,0,1.289-1.81c-.275-1.1-1.564-1.274-2.577-.869-1.231,1.144.159,1.752.159,2.679a15.289,15.289,0,0,1-2.027,9.107L26.93,70.53" transform="translate(6.699 11.542)" fill="none" stroke="#fff" stroke-linecap="round" stroke-linejoin="round" stroke-width="2.5"/>
          <rect id="Rectangle_47" data-name="Rectangle 47" width="148.283" height="147.058" fill="none"/>
        </g>
      </g>
    </g>
  </g>
</svg>
