<svg xmlns="http://www.w3.org/2000/svg" width="438.483" height="268.526" viewBox="0 0 438.483 268.526">
  <g id="Layer_2" data-name="Layer 2" transform="translate(1.38 1.041)">
    <g id="Layer_1" data-name="Layer 1" transform="translate(0 0)">
      <path id="Path_15" data-name="Path 15" d="M181.724,90.589c-.522,1.8-2.146,3-3.756,4-8.12,5.144-17.715,9.086-22.43,17.421-1.159,2.025-1.953,4.6-.823,6.639a8.285,8.285,0,0,0,2.862,2.619c11.175,7.412,23.159,15.089,36.567,15.339,3.27.057,7.591-1.574,7.09-4.8a6.088,6.088,0,0,0-2.053-3.148c-2.983-2.9-6.346-5.724-10.431-6.5s-8.993,1.374-9.888,5.437a90.707,90.707,0,0,0,15.311,1.767c2.039.064,4.443-.129,5.538-1.86s.265-3.906-1.188-5.173a12.227,12.227,0,0,0-5.287-2.218c-3.527-.851-7.155-1.681-10.732-1.431s-7.333,1.76-9.415,4.736c-2.683,3.835-2.068,9.1-.458,13.5,3.685,10.081,11.648,17.944,16.985,27.266a5.033,5.033,0,0,1,.923,3.277c-.358,1.939-2.633,2.776-4.565,3.155a56.149,56.149,0,0,1-15.969.816,19.211,19.211,0,0,0-6.3,0,14.476,14.476,0,0,0-5.86,3.642,73.062,73.062,0,0,0-13.214,15.84c-3.212,1.7-1.252,5.266.715,8.328s5.387,4.779,8.657,6.36c10.954,5.3,21.943,10.617,33.483,14.5,8.149,2.74,17.171,4.736,25.241,1.832,4.572-1.631,9.036-6.346,7.155-10.825a8.306,8.306,0,0,0-.93,7.87,9.229,9.229,0,0,0,5.674-6.439c.715-3.169-.3-6.511.186-9.723.78-5.094,5.273-9.53,4.407-14.61A19.146,19.146,0,0,1,198.6,187.8a158.534,158.534,0,0,1,30.7-1.567c.157-1.939-2.776-2.182-4.658-1.674a122.028,122.028,0,0,1-22.895,3.813,5.674,5.674,0,0,1-3.284-.458,1.989,1.989,0,0,1-.715-2.862,67.18,67.18,0,0,0,20.526-5.9c2.2-1.037,4.507-2.218,6.918-1.9a9.993,9.993,0,0,0,3.184.372,7.677,7.677,0,0,1,1.846-.429c2.061.107,1.86,3.234.987,5.108.386-5.144.186-11.09,1.252-16.1,1.152-5.452,5.008-10.145,6.275-15.74,1.574-7.09.308-16.069-6.289-19.1-1.581-.715-3.72-2.447-2.4-3.577a3.385,3.385,0,1,0,3-6.067c-2.1-1.045-5.724-.451-5.967-2.79,2.447-2.912,7.977-1.982,9.337,1.567a11.884,11.884,0,0,0,3.477-7.612,11.984,11.984,0,0,0-6.031.823c-5.416,1.867-10.889,6.06-11.075,11.784-.079,2.862,1.216,5.595,2.483,8.185l8.357,17.092c.894,1.832,1.8,3.935,1.037,5.817s-2.683,2.676-4.214,3.863a10.853,10.853,0,0,0-2.8,13.279c-1.574,1.431-3.985-.63-4.55-2.669s-.587-4.507-2.318-5.724c-.715-.508-1.667-.715-2.218-1.431-1.037-1.3.207-3.391,1.832-3.749s3.262.429,4.7,1.259a35.294,35.294,0,0,1-14.6,1.431,4.508,4.508,0,0,1-2.611-.916c-2.182-2.01.608-5.273,1.982-7.87,2.368-4.536-.064-10.016-2.34-14.574s-4.364-10.31-1.481-14.538c2.454-3.577,8.042-5.194,8.492-9.53.25-2.411-1.431-4.7-3.52-5.874a16.507,16.507,0,0,0-7.011-1.6,77.848,77.848,0,0,0-33.126,5.337l51.355,6.081c1.431.172,3.513-.122,3.577-1.588,0-.987-.952-1.653-1.524-2.454-1.6-2.254.386-5.53,2.948-6.539s5.43-.608,8.178-.837,5.824-1.481,6.546-4.142-1.345-5.323-2.34-7.97-.93-5.495-1.216-8.278c-1.517-14.667-14.381-27.352-29.069-28.618-1.553-.136-3.055-.615-3.8.715a15.162,15.162,0,0,0-1.166,4.5c-.766,3.914-4.171,8.142-7.97,6.933-2.533-.808-3.863-3.692-6.274-4.808-4.028-1.867-8.206,1.86-12.163,3.849-11.447,5.724-19.654,4.221-29.219-4.758-13.028-12.234-23.531-14.309-40.681-9.845-5.13,1.331-10.238,3.22-14.309,6.582-7.784,6.439-10.8,17.171-18.337,23.882a28.5,28.5,0,0,0-4.55,4.293c-1.216,1.688-1.774,4.114-.658,5.9,1.381,2.189,5.08,3.692,4.028,6.06s-4.786.773-6.983,2.068c-1.753,1.03-1.86,3.7-.715,5.395s3.055,2.64,4.915,3.463c2.1.923,4.665,2.755,3.778,4.865-.63,1.5-2.647,1.81-4.25,1.51s-3.5-1.3-3.863-2.991,1.8-3.534,3.105-2.4l-.064,2.2c-1.274.916-3.012.343-4.536,0s-3.577-.157-4.028,1.345c-.715,2.454,3.577,3.305,4.5,5.724.594,1.56-.465,3.241-1.61,4.45-2.247,2.361-5.008,4.185-7.155,6.639s-3.577,5.91-2.475,8.965c1.073,2.919,4.178,4.7,5.33,7.591A6.632,6.632,0,0,1,57.392,159c.587,1.631,3.577.766,4.736-.551s1.8-3.155,3.391-3.828c2.2-.93,6.031.072,6.153-2.311a2.762,2.762,0,0,0-.715-1.753,11.183,11.183,0,0,0-8.621-4.2c.379,1.824,1.946,3.127,3.413,4.293,2.146,1.66,4.293,3.363,6.911,4.049s5.724.107,7.283-2.1,1.08-5.194,0-7.634-2.654-4.665-3.334-7.24a10.882,10.882,0,0,1,15.568-12.442,5.974,5.974,0,0,1,1.932-5.008c1.073,3.363,4.386,5.631,7.82,6.439s7.033.429,10.546.036a16.685,16.685,0,0,0-8.721-4.45c-1.917-.329-3.942-.343-5.659-1.245s-2.948-3.169-1.917-4.815,3.32-1.581,5.123-1.052c3.656,1.073,6.775,3.427,10.188,5.108s7.591,2.647,10.946.851c1.6-.851,2.948-2.6,2.518-4.357a5.18,5.18,0,0,0-1.274-2.1c-7.534-8.45-19.832-10.732-31.151-10.732a8.213,8.213,0,0,1-3.914-.644,2.752,2.752,0,0,1-1.431-3.334c.522-1.059,1.839-1.431,3-1.61a61.624,61.624,0,0,1,12.249-.866,21.273,21.273,0,0,1,8.893,1.774c2.919,1.431,5.166,3.949,7.333,6.389,3.112,3.491,6.253,7.033,8.342,11.2s3.055,9.136,1.574,13.594a21.513,21.513,0,0,1-3.978,6.618A53.23,53.23,0,0,1,96.628,154.8c-2.862.715-5.852,1.223-8.442,2.654-7.155,3.949-8.9,13.272-9.873,21.385-3.391-1.746-4.736-5.788-6.353-9.244s-4.7-7.083-8.471-6.439c-1.13.193-2.254.773-3.377.551-2.254-.458-3.77-3.921-5.86-2.969-1.567,3.184-3.119,7.054-1.309,10.1s5.781,3.513,9.222,3.964,7.491,1.688,8.392,5.008a43.821,43.821,0,0,0-10.889-4.493c-2.239-.587-5.008-.844-6.518.909-1.3,1.488-1,3.914.25,5.445a8.611,8.611,0,0,0,5.158,2.669c5.359,1.03,10.839-.494,16.076-2-1.238,2.447-4.107,3.577-6.818,3.992s-5.516.2-8.156.93a12.753,12.753,0,0,0-8.585,15.025c1.188,4.343,4.736,7.756,8.793,9.7s8.585,2.626,13.086,3.019a119.652,119.652,0,0,0,44.151-4.379c.172,5.831-6.675,9.566-7.87,15.268-1.967,9.229,11.447,16.935,8.693,25.957.787,2.733,0,4.135.816,6.868a44.6,44.6,0,0,0,6.747-23.7c0-10.789-3.9-22.022.043-32.059,1.617-4.121,4.464-7.691,5.86-11.891,4.5-13.508-6.818-29.849.887-41.818,1.653-2.576,4.042-4.593,5.974-6.961,9.458-11.583,6.525-28.547,3.084-43.106-2.046-8.657-5.151-18.6-13.472-21.75-3.377-1.273-7.155-1.18-10.567-2.232-9.544-2.912-14.524-14.967-11.075-24.325s13.722-15.225,23.7-15.025c12.07.286,23.209,8.142,35.265,7.412,14.76-.9,28.2-14.509,42.355-10.245,5.187,1.567,9.451,5.395,14.617,7.026,7.3,2.3,15.2-.079,22.387-2.726,15.74-5.8,31.48-13.021,48.207-13.322s35.2,8.771,39.257,25.041c1.739,6.983,2.754,9.158-.072,15.783A13.651,13.651,0,0,1,328,70.32c-2.3,1.8-5.259,2.49-8.142,2.862a47,47,0,0,1-23.46-3c-9.73-3.906-19.9-11.226-29.663-7.369-2.146.866-4.092,2.247-6.282,3.041-7.29,2.654-15.261-1.739-21-6.969-6.089-5.552-11.447-13.35-10.016-21.464C230.711,30.262,236.9,25,243.174,21.29a81.347,81.347,0,0,1,43.8-11.225c2.146-.122-.894,3.155-2.662,4.393-9.036,6.346-20.984,6.74-31.924,5.216s-21.707-4.722-32.753-4.708c-14.939,0-29.155,5.9-43.056,11.361-3.842,1.51-7.77,3.019-11.891,3.313-9.208.651-17.707-4.772-24.74-10.732S126.34,6.008,117.741,2.652,97.665.878,93.208,8.955c-7.362,3.964-6.5,8.65-11.991,14.953-10.016,11.5-28.833,12.241-41.89,4.35-4.643-2.812-8.75-6.511-13.694-8.757A26.264,26.264,0,0,0,1,21.383" transform="translate(-1 -0.998)" fill="none" stroke="#f1f1ee" stroke-linecap="round" stroke-linejoin="round" stroke-width="2"/>
      <path id="Path_16" data-name="Path 16" d="M349.734,230.543c9.3.572,17.679-1.195,26.794.537a73.443,73.443,0,0,0,16.076,1.245,22.78,22.78,0,0,0,9.129-1.781c2.819-1.352,5.216-3.9,5.652-6.99.544-3.878-2.018-7.605-1.882-11.519.129-4.042,3.084-8.163,1.359-11.819a5.445,5.445,0,0,1-4.4,2.554l2.447-6.561a242.385,242.385,0,0,1-31.208-6.174c9.408-3.964,19.274,6.625,29.427,5.559a3.978,3.978,0,0,0,2.511-.987c1.66-1.746-.2-4.579-2.2-5.917a21.392,21.392,0,0,0-12.735-3.577c1.087-2.268,4.371-2.061,6.775-1.316s5.4,1.538,7.155-.286c2.046-2.146.25-5.666-1.567-8.027-.2,1.8.715,3.52,1.095,5.309s-.279,4.121-2.075,4.407c-1.238.193-2.347-.715-3.5-1.173-2.425-1.03-5.194-.315-7.727.415l-18.38,5.28a65.821,65.821,0,0,0,21.5-15.862,4.593,4.593,0,0,1,2.547-1.8c2.554-.351,4.407,3.692,6.854,2.862a18.6,18.6,0,0,0-5.953-11.211,9.108,9.108,0,0,0,1.66-6.339,15.819,15.819,0,0,0-11.512,2.461,13.851,13.851,0,0,0,12.392-1.846,13.121,13.121,0,0,0-12.563.272l3.148,3.334c-3.613-.222-7.419-.508-10.431-2.511s-4.779-6.36-2.754-9.365c1.231-1.817,3.441-2.654,5.523-3.37q6.024-2.082,12.091-4.021a11.962,11.962,0,0,1,5.724-.844c4.45.816,6.539,6.482,5.244,10.818s-4.865,7.548-8.263,10.531a49.788,49.788,0,0,0,12.592-8.442,7.385,7.385,0,0,0,2.554-3.72,6.131,6.131,0,0,0-.715-3.756c-3.885-8.149-14.946-11.218-18.144-19.661a18.516,18.516,0,0,1-.365-10.317c1.016-4.872,3.906-10.138,8.829-10.861,5.981-.873,10.517,5.38,12.327,11.147a45.6,45.6,0,0,1,0,27.087c-.715,2.268-1.431,5.13.308,6.718,4.421-4.822,6.3-11.59,6.131-18.122s-2.2-12.878-4.808-18.888c-1.774-4.071-4.014-8.242-7.87-10.446s-9.079-.107-12.055,3.184a59.949,59.949,0,0,0-7.155,9.687,14.545,14.545,0,0,0-13.164,2.425,44.029,44.029,0,0,0-12.041-15.2c-2.676-2.146-6.632-3.992-9.344-1.874a21.849,21.849,0,0,0,2.755,11.977c1.889,3.363,4.629,7.741,1.953,10.517a6.861,6.861,0,0,1-3.52,1.638,39.35,39.35,0,0,1-27.066-3.613c-.572-1.9,2.368-2.683,4.336-2.425l28.482,3.763c-.909-2.332-3.477-3.506-5.86-4.243-29.012-9.015-61.193,12.249-90.054,2.755-1.116,2.211,2.111,4.014,4.565,4.293,14.388,1.717,28.883-1.195,43.085-4.092l23.868-4.872c.487,9.036,1.688,18.4,6.582,26.007s14.424,12.878,23.088,10.31c8.085-2.425,13.086-10.925,14.159-19.317a34.878,34.878,0,0,0-12-30.593c-4.5-3.763-10.174-6.382-16.04-6.275s-11.819,3.305-14.309,8.585c-1.431,3.048-1.631,6.5-1.767,9.859-.272,6.8-.258,13.815,2.247,20.14,4.479,11.326,17.386,18.6,29.4,16.641.952,8.786-6.883,15.661-13.257,21.786a103.24,103.24,0,0,0-19.489,25.756c-4.185,7.827-7.2,17.851-2.182,25.163,1.431,2.1,3.484,3.871,4.15,6.317.844,3.084-.751,6.26-2.382,9.008-4.336,7.29-8.986,12.678-10.338,21.041a28.728,28.728,0,0,0-.243,8.922c.587,3.885,2.3,7.541,2.819,11.447s-.544,8.464-4.014,10.31c-2.683,6.074-10.109-.673-12.4-6.9-3.012-8.2,3.119-17.543,11.175-20.927s17.235-2.247,25.756-.451,17.171,4.236,25.864,3.291c9.959-1.087,18.845-6.489,28.282-9.866s21.042-4.336,28.489,2.368c4.65,4.178,6.825,10.646,11.676,14.6,5.287,4.293,12.685,4.779,19.5,4.386,17.679-1.03,34.392-7.813,49.96-16.234" transform="translate(-76.28 -28.49)" fill="none" stroke="#f1f1ee" stroke-linecap="round" stroke-linejoin="round" stroke-width="2"/>
    </g>
  </g>
</svg>
