<svg xmlns="http://www.w3.org/2000/svg" width="690.455" height="715.168" viewBox="0 0 690.455 715.168">
  <path id="Path_3149" data-name="Path 3149" d="M282.339-168.524c43.184,52.407,48.315,130.072,68.41,209.492,20.1,79.286,55.3,160.462,32.922,221.784C361.153,324.209,280.914,365.81,206.8,367.026,132.692,368.106,64.567,328.8,7.558,294.493c-57.008-34.443-102.9-63.753-137.39-106.164s-57.436-98.06-45.749-145.47C-163.752-4.55-117.148-43.72-69.4-95.451c47.6-51.6,96.487-115.755,161.762-134.259C157.49-248.08,239.013-220.931,282.339-168.524Z" transform="matrix(0.974, -0.225, 0.225, 0.974, 227.046, 317.338)" fill="#e0e0e0" opacity="0.996"/>
</svg>
